# xmcd CD database file
#
# Track frame offsets:
#	150
#	20025
#	35156
#	49010
#	66099
#
# Disc length: 1095 seconds
#
# Revision: 0
# Processed by: cddbd v1.5.2PL0 Copyright (c) Steve Scherf et al.
# Submitted via: CDex 1.72
#
DISCID=42044505
DTITLE=Lauren Lucas - If I Was Your Girl
DYEAR=2007
DGENRE=Country
TTITLE0=Riverstone
TTITLE1=Borderline Divine
TTITLE2=What Am I To You
TTITLE3=The Carolina Kind
TTITLE4=If I Was Your Girl
EXTD=YEAR: 2007
EXTT0=
EXTT1=
EXTT2=
EXTT3=
EXTT4=
PLAYORDER=
